<?xml version="1.0" standalone="no"?><!DOCTYPE svg PUBLIC "-//W3C//DTD SVG 1.1//EN" "http://www.w3.org/Graphics/SVG/1.1/DTD/svg11.dtd"><svg t="1729233532110" class="icon" viewBox="0 0 1024 1024" version="1.1" xmlns="http://www.w3.org/2000/svg" p-id="6262" xmlns:xlink="http://www.w3.org/1999/xlink" width="200" height="200"><path d="M392.533333 170.666667q0-8.533333-8.533333-8.533334H170.666667q-8.533333 0-8.533334 8.533334v213.333333q0 8.533333 8.533334 8.533333h213.333333q8.533333 0 8.533333-8.533333V170.666667z m68.266667 0v213.333333q0 31.857778-22.471111 54.328889-22.528 22.471111-54.328889 22.471111H170.666667q-31.857778 0-54.328889-22.471111-22.471111-22.528-22.471111-54.328889V170.666667q0-31.857778 22.471111-54.328889 22.528-22.471111 54.328889-22.471111h213.333333q31.857778 0 54.328889 22.471111 22.471111 22.528 22.471111 54.328889zM392.533333 640q0-8.533333-8.533333-8.533333H170.666667q-8.533333 0-8.533334 8.533333V853.333333q0 8.533333 8.533334 8.533334h213.333333q8.533333 0 8.533333-8.533334v-213.333333z m68.266667 0V853.333333q0 31.857778-22.471111 54.328889-22.528 22.471111-54.328889 22.471111H170.666667q-31.857778 0-54.328889-22.471111-22.471111-22.528-22.471111-54.328889v-213.333333q0-31.857778 22.471111-54.328889Q138.865778 563.2 170.666667 563.2h213.333333q31.857778 0 54.328889 22.471111 22.471111 22.528 22.471111 54.328889zM861.866667 170.666667q0-8.533333-8.533334-8.533334h-213.333333q-8.533333 0-8.533333 8.533334v213.333333q0 8.533333 8.533333 8.533333H853.333333q8.533333 0 8.533334-8.533333V170.666667z m68.266666 0v213.333333q0 31.857778-22.471111 54.328889-22.528 22.471111-54.328889 22.471111h-213.333333q-31.857778 0-54.328889-22.471111Q563.2 415.800889 563.2 384V170.666667q0-31.857778 22.471111-54.328889 22.528-22.471111 54.328889-22.471111H853.333333q31.857778 0 54.328889 22.471111 22.471111 22.528 22.471111 54.328889zM861.866667 640q0-8.533333-8.533334-8.533333h-213.333333q-8.533333 0-8.533333 8.533333V853.333333q0 8.533333 8.533333 8.533334H853.333333q8.533333 0 8.533334-8.533334v-213.333333z m68.266666 0V853.333333q0 31.857778-22.471111 54.328889-22.528 22.471111-54.328889 22.471111h-213.333333q-31.857778 0-54.328889-22.471111Q563.2 885.134222 563.2 853.333333v-213.333333q0-31.857778 22.471111-54.328889 22.528-22.471111 54.328889-22.471111H853.333333q31.857778 0 54.328889 22.471111 22.471111 22.528 22.471111 54.328889z" fill="#43464D" p-id="6263"></path></svg>