<?xml version="1.0" standalone="no"?><!DOCTYPE svg PUBLIC "-//W3C//DTD SVG 1.1//EN" "http://www.w3.org/Graphics/SVG/1.1/DTD/svg11.dtd"><svg t="1729233497677" class="icon" viewBox="0 0 1024 1024" version="1.1" xmlns="http://www.w3.org/2000/svg" p-id="4313" xmlns:xlink="http://www.w3.org/1999/xlink" width="200" height="200"><path d="M719.127273 884.363636H235.054545C169.890909 884.363636 116.363636 819.2 116.363636 737.745455V488.727273h46.545455v249.018182C162.909091 791.272727 195.490909 837.818182 235.054545 837.818182h481.745455c39.563636 0 72.145455-46.545455 72.145455-100.072727V488.727273h46.545454v249.018182c2.327273 81.454545-51.2 146.618182-116.363636 146.618181z" fill="" p-id="4314"></path><path d="M826.181818 535.272727h-698.181818C83.781818 535.272727 46.545455 498.036364 46.545455 453.818182S83.781818 372.363636 128 372.363636h698.181818c44.218182 0 81.454545 37.236364 81.454546 81.454546S870.4 535.272727 826.181818 535.272727z m-698.181818-116.363636c-18.618182 0-34.909091 16.290909-34.909091 34.909091S109.381818 488.727273 128 488.727273h698.181818c18.618182 0 34.909091-16.290909 34.909091-34.909091s-16.290909-34.909091-34.909091-34.909091h-698.181818zM791.272727 744.727273h-160.581818c-39.563636 0-72.145455-37.236364-72.145454-81.454546s32.581818-81.454545 72.145454-81.454545H791.272727v46.545454h-160.581818c-13.963636 0-25.6 16.290909-25.6 34.909091s11.636364 34.909091 25.6 34.909091H791.272727v46.545455z" fill="" p-id="4315"></path><path d="M521.309091 418.909091h-325.818182l-67.490909-144.290909c-6.981818-16.290909-9.309091-34.909091-2.327273-53.527273 6.981818-18.618182 18.618182-32.581818 34.909091-39.563636l172.218182-81.454546c16.290909-6.981818 34.909091-6.981818 51.2 0 18.618182 6.981818 32.581818 18.618182 39.563636 34.909091l114.036364 244.363637c2.327273 2.327273 2.327273 6.981818 2.327273 9.30909l9.309091 30.254546h-27.927273zM223.418182 372.363636h260.654545l-102.4-216.436363c-2.327273-4.654545-6.981818-9.309091-13.963636-11.636364-6.981818-2.327273-11.636364-2.327273-18.618182 0L179.2 223.418182c-4.654545 2.327273-9.309091 6.981818-11.636364 13.963636-2.327273 6.981818-2.327273 11.636364 0 18.618182l55.854546 116.363636z" fill="" p-id="4316"></path><path d="M244.363636 304.872727c-9.309091 0-16.290909-4.654545-20.945454-13.963636-4.654545-11.636364 0-25.6 11.636363-30.254546l104.727273-48.872727c11.636364-4.654545 25.6 0 30.254546 11.636364 4.654545 11.636364 0 25.6-11.636364 30.254545L253.672727 302.545455c-2.327273 2.327273-6.981818 2.327273-9.309091 2.327272zM272.290909 367.709091c-9.309091 0-16.290909-4.654545-20.945454-13.963636-4.654545-11.636364 0-25.6 11.636363-30.254546l104.727273-48.872727c11.636364-4.654545 25.6 0 30.254545 11.636363 4.654545 11.636364 0 25.6-11.636363 30.254546l-104.727273 48.872727c-2.327273 2.327273-4.654545 2.327273-9.309091 2.327273zM698.181818 395.636364h-46.545454V162.909091h-23.272728v232.727273h-46.545454V162.909091c0-25.6 20.945455-46.545455 46.545454-46.545455h23.272728c25.6 0 46.545455 20.945455 46.545454 46.545455v232.727273z" fill="" p-id="4317"></path><path d="M768 302.545455h-46.545455V188.509091c-2.327273 0-6.981818-2.327273-11.636363-2.327273H674.909091V139.636364h34.909091c32.581818 0 58.181818 20.945455 58.181818 46.545454v116.363637zM605.090909 232.727273h69.818182v46.545454h-69.818182z" fill="" p-id="4318"></path></svg>