<?xml version="1.0" standalone="no"?><!DOCTYPE svg PUBLIC "-//W3C//DTD SVG 1.1//EN" "http://www.w3.org/Graphics/SVG/1.1/DTD/svg11.dtd"><svg t="1729233578026" class="icon" viewBox="0 0 1024 1024" version="1.1" xmlns="http://www.w3.org/2000/svg" p-id="8431" xmlns:xlink="http://www.w3.org/1999/xlink" width="200" height="200"><path d="M552.837 821.811c0 14.142 11.459 25.6 25.6 25.6H967.62c14.141 0 25.6-11.458 25.6-25.6s-11.459-25.6-25.6-25.6H578.437c-14.141 0-25.6 11.459-25.6 25.6zM967.619 934.943H393.482c-14.141 0-25.6 11.458-25.6 25.6s11.459 25.6 25.6 25.6H967.62c14.141 0 25.6-11.459 25.6-25.6s-11.459-25.6-25.6-25.6zM412.641 840.96c0.297-0.307 0.512-0.666 0.799-0.993 0.645-0.594 1.372-1.188 1.956-1.782L826.06 427.53c0.01 0 0.02-0.01 0.03-0.02s0.01-0.02 0.021-0.031l76.585-76.585c32.123-32.123 49.818-74.834 49.818-120.258S934.81 142.5 902.697 110.377l-22.702-22.702c-32.123-32.133-74.844-49.818-120.259-49.818s-88.125 17.695-120.258 49.818L152.177 574.986c-0.584 0.574-1.147 1.3-1.72 1.915-0.328 0.297-0.707 0.522-1.035 0.84-1.055 1.044-1.915 2.191-2.754 3.359l-0.277 0.337c-0.092 0.144-0.215 0.267-0.297 0.41C88.31 653.537 37.08 911.165 31.242 941.271a25.605 25.605 0 0 0 7.475 23.409 25.615 25.615 0 0 0 17.654 7.055c2.028 0 4.065-0.235 6.083-0.727 28.99-7.096 278.528-69.396 347.382-127.775 0.962-0.717 1.935-1.403 2.805-2.273zM203.735 595.845l377.252-377.252 190.802 190.823-377.242 377.241-190.812-190.812z m471.941-471.961c22.456-22.447 52.306-34.816 84.06-34.816s61.604 12.37 84.05 34.816l22.713 22.712c22.446 22.446 34.816 52.296 34.816 84.05s-12.37 61.604-34.816 84.05l-58.522 58.521-190.802-190.822 58.501-58.511zM171.735 636.252l182.856 182.866c-55.665 30.925-174.428 68.096-264.94 92.099 20.163-94.137 52.685-217.867 82.084-274.965z" p-id="8432"></path></svg>