<?xml version="1.0" standalone="no"?><!DOCTYPE svg PUBLIC "-//W3C//DTD SVG 1.1//EN" "http://www.w3.org/Graphics/SVG/1.1/DTD/svg11.dtd"><svg t="1729233554283" class="icon" viewBox="0 0 1024 1024" version="1.1" xmlns="http://www.w3.org/2000/svg" p-id="7406" xmlns:xlink="http://www.w3.org/1999/xlink" width="200" height="200"><path d="M512 989.866667c-13.653333 0-27.306667-6.826667-40.96-17.066667l-6.826667-6.826667C303.786667 764.586667 204.8 621.226667 177.493333 532.48c-13.653333-34.133333-20.48-75.093333-20.48-122.88-6.826667-95.573333 27.306667-187.733333 92.16-259.413333 64.853333-71.68 153.6-112.64 249.173334-116.053334 95.573333-3.413333 187.733333 30.72 256 92.16 71.68 64.853333 112.64 153.6 116.053333 249.173334v27.306666c0 40.96-6.826667 88.746667-23.893333 126.293334-27.306667 85.333333-126.293333 232.106667-290.133334 433.493333l-3.413333 3.413333c-10.24 17.066667-27.306667 23.893333-40.96 23.893334z m6.826667-64.853334zM512 102.4h-10.24c-78.506667 3.413333-146.773333 34.133333-201.386667 92.16-51.2 58.026667-78.506667 133.12-75.093333 211.626667 0 44.373333 3.413333 75.093333 13.653333 102.4 17.066667 54.613333 78.506667 167.253333 273.066667 406.186666 191.146667-238.933333 252.586667-351.573333 273.066667-406.186666 13.653333-34.133333 17.066667-71.68 17.066666-105.813334V375.466667c-3.413333-75.093333-37.546667-146.773333-92.16-201.386667C655.36 129.706667 583.68 102.4 512 102.4z m6.826667 450.56H512c-78.506667 0-143.36-64.853333-143.36-150.186667v-6.826666c3.413333-40.96 20.48-78.506667 47.786667-102.4 30.72-27.306667 68.266667-40.96 105.813333-37.546667 81.92 3.413333 146.773333 71.68 139.946667 157.013333-3.413333 40.96-20.48 78.506667-47.786667 102.4-27.306667 23.893333-61.44 37.546667-95.573333 37.546667z m-3.413334-228.693333c-20.48 0-37.546667 6.826667-51.2 20.48-17.066667 13.653333-27.306667 34.133333-27.306666 58.026666 0 47.786667 34.133333 81.92 75.093333 81.92h3.413333c20.48 0 40.96-6.826667 58.026667-20.48 17.066667-13.653333 27.306667-34.133333 27.306667-58.026666 3.413333-44.373333-30.72-81.92-78.506667-81.92h-6.826667z" fill="#98A2AB" p-id="7407"></path></svg>